<?xml version="1.0" encoding="UTF-8"?>
<svg xmlns="http://www.w3.org/2000/svg" xmlns:xlink="http://www.w3.org/1999/xlink" width="24px" height="24px" viewBox="0 0 24 24" version="1.1">
<g id="surface1">
<path style=" stroke:none;fill-rule:nonzero;fill:rgb(100%,100%,100%);fill-opacity:1;" d="M 17.480469 4.316406 C 17.382812 4.3125 17.28125 4.328125 17.183594 4.359375 C 16.464844 4.445312 16.507812 5.375 16.507812 5.375 C 16.507812 5.375 15.28125 5.332031 14.6875 5.332031 C 14.015625 5.339844 13.351562 5.425781 12.699219 5.585938 C 12.570312 5.671875 12.570312 5.925781 12.570312 5.925781 C 12.570312 5.925781 12.0625 6.179688 11.980469 6.390625 C 11.792969 6.800781 11.960938 7.285156 12.359375 7.492188 C 12.953125 7.871094 14.601562 8.167969 14.601562 8.167969 L 14.601562 8.253906 C 14.414062 8.523438 14.199219 8.78125 13.96875 9.015625 C 13.820312 8.972656 13.679688 8.917969 13.546875 8.847656 C 13.207031 8.675781 12.402344 8.128906 12.105469 7.957031 C 11.808594 7.789062 11.597656 8 11.640625 8.128906 C 11.683594 8.253906 12.359375 8.890625 12.359375 8.890625 C 12.359375 8.890625 9.566406 8.804688 8.59375 8.929688 C 7.617188 9.058594 6.601562 9.988281 6.601562 9.988281 C 6.601562 9.988281 6.054688 10.160156 5.375 10.414062 C 4.824219 10.65625 4.347656 11.035156 3.980469 11.511719 C 3.820312 11.714844 3.679688 11.925781 3.554688 12.148438 C 3.261719 12.089844 2.964844 12.046875 2.667969 12.019531 C 2.539062 12.019531 2.410156 12.035156 2.285156 12.0625 C 2.460938 12.101562 2.625 12.191406 2.75 12.316406 C 2.894531 12.40625 2.949219 12.589844 2.878906 12.742188 C 2.394531 12.59375 1.949219 12.351562 1.566406 12.019531 L 1.691406 12.359375 L 1.480469 12.316406 C 1.269531 12.230469 1.070312 12.117188 0.890625 11.980469 C 0.617188 11.851562 0.476562 11.550781 0.550781 11.257812 L 0.382812 11.429688 C 0.191406 11.664062 0.191406 12 0.382812 12.234375 C 0.210938 12.273438 0.0859375 12.273438 0 12.402344 C 0.175781 12.429688 0.347656 12.488281 0.507812 12.570312 C 0.792969 12.804688 1.0625 13.058594 1.3125 13.332031 L 0.847656 13.25 C 0.847656 13.25 0.890625 13.417969 1.3125 13.585938 C 1.726562 13.703125 2.167969 13.703125 2.582031 13.585938 C 2.554688 13.664062 2.492188 13.726562 2.414062 13.757812 L 1.945312 13.882812 C 2.039062 13.941406 2.136719 13.984375 2.242188 14.011719 C 2.554688 14.050781 2.875 14.019531 3.175781 13.925781 C 3.269531 13.90625 3.347656 13.84375 3.386719 13.757812 C 3.652344 13.78125 3.921875 13.78125 4.191406 13.757812 C 4.613281 13.671875 4.910156 13.121094 4.910156 13.121094 L 4.996094 13.585938 C 5.0625 13.449219 5.164062 13.332031 5.289062 13.25 C 5.609375 13.085938 5.863281 12.816406 6.011719 12.488281 C 6.074219 12.164062 6.074219 11.835938 6.011719 11.511719 C 6.011719 11.300781 5.96875 10.75 5.96875 10.75 L 6.308594 10.667969 L 6.308594 11.429688 C 6.28125 11.976562 6.449219 12.511719 6.773438 12.953125 C 7.027344 13.207031 7.746094 13.628906 7.746094 13.671875 C 7.746094 13.714844 7.832031 13.839844 7.746094 14.054688 C 7.660156 14.265625 7.449219 14.433594 6.941406 14.855469 C 6.433594 15.28125 6.308594 15.492188 6.6875 15.871094 C 7.070312 16.253906 8.210938 17.4375 8.636719 17.863281 C 9.058594 18.285156 9.015625 18.371094 8.972656 18.414062 C 8.929688 18.453125 8.804688 18.453125 8.636719 18.453125 C 8.464844 18.453125 8.210938 18.371094 8.253906 18.496094 L 8.253906 19.429688 C 8.253906 19.683594 8.253906 19.640625 8.507812 19.640625 C 8.757812 19.640625 8.996094 19.550781 9.183594 19.386719 C 9.421875 19.167969 9.558594 18.863281 9.566406 18.539062 C 9.574219 18.15625 9.484375 17.78125 9.3125 17.4375 C 9.058594 17.144531 7.832031 15.914062 7.914062 15.746094 C 8 15.578125 8.71875 14.941406 8.71875 14.941406 C 8.691406 15.210938 8.605469 15.472656 8.464844 15.703125 C 8.296875 16 8.382812 16.128906 8.890625 16.382812 C 9.398438 16.636719 10.160156 17.144531 10.160156 17.144531 C 10.160156 17.144531 9.734375 17.523438 9.945312 17.566406 C 10.160156 17.609375 10.710938 17.945312 10.792969 17.945312 C 10.910156 17.964844 11.023438 17.992188 11.132812 18.03125 C 11.292969 18.105469 11.449219 18.191406 11.597656 18.285156 C 11.386719 18.285156 11.386719 18.414062 11.472656 18.582031 L 11.726562 19.21875 C 11.914062 19.164062 12.097656 19.09375 12.273438 19.003906 C 12.445312 18.921875 12.402344 18.75 12.445312 18.582031 C 12.488281 18.414062 12.488281 18.371094 12.488281 18.371094 C 12.488281 18.371094 13.164062 18.328125 13.546875 18.328125 C 13.820312 18.363281 14.097656 18.320312 14.347656 18.199219 C 14.484375 18.078125 14.597656 17.9375 14.6875 17.777344 C 14.890625 17.800781 15.085938 17.84375 15.28125 17.90625 C 15.539062 17.988281 15.8125 18.015625 16.085938 17.988281 C 16.339844 17.945312 17.4375 17.4375 17.90625 17.269531 C 18.371094 17.101562 18.285156 17.015625 18.328125 16.71875 C 18.371094 16.421875 18.453125 16.421875 18.242188 16.210938 L 17.226562 14.984375 C 17.203125 14.914062 17.191406 14.84375 17.183594 14.773438 C 17.183594 14.6875 17.355469 14.6875 17.863281 14.136719 C 18.371094 13.585938 18.328125 12.445312 18.414062 12.402344 C 18.578125 12.164062 18.765625 11.9375 18.964844 11.726562 C 19.300781 11.246094 19.609375 10.753906 19.894531 10.242188 C 20.65625 10.371094 21.546875 10.414062 22.222656 9.945312 L 22.265625 9.988281 C 22.378906 10.035156 22.503906 10.019531 22.601562 9.945312 C 22.671875 9.980469 22.742188 10.007812 22.816406 10.03125 C 22.941406 10.074219 23.070312 10.285156 23.28125 10.328125 C 23.617188 10.292969 23.898438 10.058594 24 9.734375 C 24.0625 9.511719 23.976562 9.273438 23.789062 9.144531 C 23.617188 9.058594 23.492188 8.847656 23.238281 8.675781 C 22.964844 8.445312 22.707031 8.191406 22.476562 7.914062 C 22.308594 7.675781 22.125 7.453125 21.925781 7.238281 C 21.714844 7.019531 21.453125 6.859375 21.164062 6.773438 C 21.222656 6.667969 21.25 6.550781 21.25 6.433594 L 21.25 5.800781 C 21.25 5.628906 21.207031 5.671875 21.078125 5.882812 C 21.007812 6.03125 20.90625 6.160156 20.78125 6.265625 C 20.675781 6.15625 20.578125 6.042969 20.488281 5.925781 C 20.359375 5.757812 20.316406 5.671875 20.273438 5.882812 C 20.234375 6.09375 20.234375 6.5625 20.234375 6.644531 C 20.230469 6.703125 20.214844 6.761719 20.191406 6.816406 C 20.105469 6.773438 19.980469 6.644531 19.808594 6.730469 C 19.472656 6.816406 19.089844 7.238281 18.667969 7.578125 C 18.332031 7.800781 18.019531 8.054688 17.734375 8.339844 C 17.734375 8.339844 17.015625 8.167969 16.804688 8.128906 C 16.59375 8.085938 16.550781 7.957031 16.507812 7.660156 C 16.46875 7.460938 16.5 7.25 16.59375 7.070312 C 16.640625 6.871094 16.730469 6.683594 16.847656 6.519531 C 16.890625 6.519531 17.398438 6.6875 17.480469 6.6875 C 17.566406 6.6875 17.652344 6.601562 17.691406 6.476562 C 17.726562 6.398438 17.769531 6.328125 17.820312 6.265625 C 17.820312 6.265625 18.03125 6.390625 18.03125 6.265625 L 18.03125 5.925781 C 18.152344 5.871094 18.28125 5.84375 18.414062 5.839844 C 18.625 5.839844 18.625 5.671875 18.539062 5.671875 C 18.476562 5.664062 18.417969 5.632812 18.371094 5.585938 C 18.335938 5.324219 18.265625 5.070312 18.160156 4.824219 C 18.117188 4.527344 17.945312 4.316406 17.480469 4.316406 Z M 20.78125 9.398438 L 21.375 9.480469 C 21.589844 9.5 21.808594 9.46875 22.011719 9.398438 L 22.136719 9.480469 C 21.519531 9.863281 20.773438 9.988281 20.0625 9.820312 C 20.125 9.726562 20.195312 9.644531 20.273438 9.566406 C 20.433594 9.480469 20.605469 9.425781 20.78125 9.398438 Z M 10.75 12.996094 C 11.308594 13.566406 11.988281 14 12.742188 14.265625 C 13.96875 14.6875 14.519531 14.816406 14.519531 14.816406 C 14.496094 15.101562 14.453125 15.382812 14.390625 15.660156 C 14.3125 15.976562 14.214844 16.289062 14.09375 16.59375 C 14.011719 16.929688 13.96875 17.355469 13.882812 17.566406 C 13.800781 17.777344 12.65625 17.777344 12.316406 17.734375 L 11.980469 17.734375 C 11.570312 17.332031 11.113281 16.976562 10.625 16.675781 C 10.394531 16.53125 10.152344 16.40625 9.90625 16.296875 L 9.90625 15.238281 C 10.144531 14.898438 10.34375 14.527344 10.496094 14.136719 C 10.648438 13.773438 10.734375 13.386719 10.75 12.996094 Z M 15.957031 15.492188 C 15.957031 15.492188 16.507812 15.871094 16.972656 16.128906 C 17.4375 16.382812 17.566406 16.507812 17.4375 16.59375 C 17.214844 16.800781 16.957031 16.972656 16.675781 17.101562 C 16.320312 17.238281 15.953125 17.335938 15.578125 17.398438 C 15.449219 17.398438 15.40625 17.3125 15.40625 17.183594 C 15.328125 17.042969 15.226562 16.917969 15.109375 16.804688 Z M 15.957031 15.492188 "/>
</g>
</svg>
