<?xml version="1.0" encoding="UTF-8"?>
<svg xmlns="http://www.w3.org/2000/svg" xmlns:xlink="http://www.w3.org/1999/xlink" width="24px" height="24px" viewBox="0 0 24 24" version="1.1">
<g id="surface1">
<path style=" stroke:none;fill-rule:nonzero;fill:rgb(100%,100%,100%);fill-opacity:1;" d="M 24 21.035156 L 18.710938 15.746094 L 16.972656 14.011719 C 16.453125 13.488281 16.257812 12.726562 16.464844 12.019531 C 16.546875 11.671875 16.601562 11.320312 16.636719 10.964844 C 16.304688 11.050781 15.960938 11.09375 15.617188 11.089844 C 15.449219 11.097656 15.277344 11.082031 15.109375 11.046875 L 8.636719 4.570312 L 10.496094 2.710938 C 11.0625 3.042969 11.589844 3.441406 12.0625 3.894531 C 12.367188 3.492188 12.738281 3.148438 13.164062 2.878906 C 11.34375 1.105469 8.929688 0.078125 6.390625 0 C 4.691406 -0.0390625 3.046875 0.601562 1.820312 1.777344 C -1.058594 4.613281 -0.421875 9.863281 3.175781 13.460938 C 5.25 15.535156 7.871094 16.636719 10.285156 16.636719 C 10.914062 16.636719 11.542969 16.550781 12.148438 16.382812 C 12.800781 16.238281 13.484375 16.429688 13.96875 16.890625 L 20.910156 23.832031 L 20.996094 23.914062 L 23.363281 21.546875 Z M 11.089844 8.675781 L 8.804688 10.964844 L 5.503906 7.703125 L 7.789062 5.417969 Z M 6.390625 1.480469 C 7.429688 1.476562 8.457031 1.710938 9.398438 2.160156 L 7.832031 3.726562 L 5.671875 1.566406 C 5.90625 1.511719 6.148438 1.484375 6.390625 1.480469 Z M 4.273438 1.863281 L 6.941406 4.527344 L 4.65625 6.855469 L 1.988281 4.148438 C 2.195312 3.667969 2.480469 3.222656 2.835938 2.835938 C 3.253906 2.425781 3.738281 2.097656 4.273438 1.863281 Z M 1.523438 7.152344 C 1.453125 6.574219 1.46875 5.992188 1.566406 5.417969 L 3.808594 7.703125 L 2.117188 9.398438 C 1.816406 8.679688 1.617188 7.925781 1.523438 7.152344 Z M 2.710938 10.496094 L 4.65625 8.550781 L 7.957031 11.851562 L 5.96875 13.839844 C 5.339844 13.4375 4.761719 12.96875 4.234375 12.445312 C 3.652344 11.855469 3.140625 11.203125 2.710938 10.496094 Z M 7.070312 14.433594 L 8.804688 12.699219 L 11.21875 15.109375 C 10.910156 15.164062 10.597656 15.191406 10.285156 15.195312 C 9.171875 15.164062 8.078125 14.90625 7.070312 14.433594 Z M 13.839844 13.839844 C 13.457031 14.199219 13.015625 14.488281 12.527344 14.6875 L 9.652344 11.808594 L 11.9375 9.523438 L 14.773438 12.359375 C 14.570312 12.914062 14.253906 13.417969 13.839844 13.839844 Z M 13.839844 13.839844 "/>
<path style=" stroke:none;fill-rule:nonzero;fill:rgb(100%,100%,100%);fill-opacity:1;" d="M 18.625 6.601562 C 18.625 4.945312 17.277344 3.597656 15.617188 3.597656 C 13.960938 3.597656 12.613281 4.945312 12.613281 6.601562 C 12.613281 8.261719 13.960938 9.609375 15.617188 9.609375 C 17.277344 9.609375 18.625 8.261719 18.625 6.601562 Z M 18.625 6.601562 "/>
</g>
</svg>
