<?xml version="1.0" encoding="UTF-8"?>
<svg xmlns="http://www.w3.org/2000/svg" xmlns:xlink="http://www.w3.org/1999/xlink" width="24px" height="24px" viewBox="0 0 24 24" version="1.1">
<g id="surface1">
<path style=" stroke:none;fill-rule:nonzero;fill:rgb(100%,100%,100%);fill-opacity:1;" d="M 19.894531 3.765625 C 20.007812 3.765625 20.113281 3.8125 20.191406 3.894531 L 20.570312 4.234375 C 20.667969 4.316406 20.726562 4.433594 20.734375 4.5625 C 20.742188 4.691406 20.699219 4.816406 20.613281 4.910156 L 16.847656 9.269531 L 17.566406 9.863281 C 17.75 10.015625 17.863281 10.238281 17.878906 10.480469 C 17.894531 10.71875 17.8125 10.953125 17.652344 11.132812 L 8.890625 21.207031 C 8.71875 21.402344 8.472656 21.511719 8.210938 21.503906 C 7.996094 21.496094 7.789062 21.421875 7.617188 21.289062 L 5.078125 19.132812 C 4.894531 18.976562 4.785156 18.753906 4.765625 18.515625 C 4.75 18.277344 4.832031 18.039062 4.996094 17.863281 L 5.882812 16.847656 L 9.820312 12.273438 L 13.757812 7.789062 C 13.925781 7.589844 14.175781 7.480469 14.433594 7.492188 C 14.648438 7.496094 14.855469 7.570312 15.027344 7.703125 L 15.746094 8.296875 L 19.511719 3.9375 C 19.621094 3.847656 19.753906 3.789062 19.894531 3.765625 "/>
<path style=" stroke:none;fill-rule:nonzero;fill:rgb(100%,100%,100%);fill-opacity:1;" d="M 19.511719 18.328125 C 19.511719 17.066406 18.488281 16.042969 17.226562 16.042969 C 15.964844 16.042969 14.941406 17.066406 14.941406 18.328125 C 14.941406 19.589844 15.964844 20.613281 17.226562 20.613281 C 18.488281 20.613281 19.511719 19.589844 19.511719 18.328125 Z M 19.511719 18.328125 "/>
<path style=" stroke:none;fill-rule:nonzero;fill:rgb(100%,100%,100%);fill-opacity:1;" d="M 11.511719 24 L 13.332031 24 L 13.332031 18.199219 L 11.511719 20.273438 Z M 11.511719 24 "/>
<path style=" stroke:none;fill-rule:nonzero;fill:rgb(100%,100%,100%);fill-opacity:1;" d="M 7.363281 22.773438 L 7.363281 24 L 9.183594 24 L 9.183594 22.6875 C 8.875 22.855469 8.523438 22.945312 8.167969 22.941406 C 7.898438 22.902344 7.628906 22.84375 7.363281 22.773438 Z M 7.363281 22.773438 "/>
<path style=" stroke:none;fill-rule:nonzero;fill:rgb(100%,100%,100%);fill-opacity:1;" d="M 3.429688 18.625 C 3.367188 18.007812 3.566406 17.394531 3.980469 16.929688 L 5.078125 15.660156 L 5.078125 1.945312 C 5.089844 1.75 5.019531 1.554688 4.882812 1.410156 C 4.746094 1.269531 4.558594 1.1875 4.359375 1.183594 L 4.996094 1.183594 C 5.085938 1.191406 5.15625 1.261719 5.164062 1.355469 L 5.164062 1.566406 C 5.171875 1.65625 5.242188 1.730469 5.332031 1.734375 L 7.070312 1.734375 C 7.160156 1.730469 7.230469 1.65625 7.238281 1.566406 L 7.238281 1.355469 C 7.246094 1.261719 7.316406 1.191406 7.40625 1.183594 L 8.128906 1.183594 C 7.71875 1.203125 7.398438 1.539062 7.40625 1.945312 L 7.40625 12.996094 L 9.226562 10.921875 L 9.226562 1.945312 C 9.238281 1.75 9.167969 1.554688 9.03125 1.410156 C 8.894531 1.269531 8.707031 1.1875 8.507812 1.183594 L 9.226562 1.183594 C 9.316406 1.191406 9.390625 1.261719 9.398438 1.355469 L 9.398438 1.566406 C 9.402344 1.65625 9.476562 1.730469 9.566406 1.734375 L 11.300781 1.734375 C 11.390625 1.730469 11.464844 1.65625 11.472656 1.566406 L 11.472656 1.355469 C 11.476562 1.261719 11.550781 1.191406 11.640625 1.183594 L 12.273438 1.183594 C 11.867188 1.203125 11.546875 1.539062 11.554688 1.945312 L 11.554688 8.253906 L 12.742188 6.898438 C 12.914062 6.6875 13.128906 6.511719 13.375 6.390625 L 13.375 1.945312 C 13.386719 1.75 13.316406 1.554688 13.179688 1.410156 C 13.042969 1.269531 12.855469 1.1875 12.65625 1.183594 L 12.402344 1.183594 C 12.492188 1.179688 12.566406 1.105469 12.570312 1.015625 L 12.570312 0.675781 C 12.566406 0.585938 12.492188 0.515625 12.402344 0.507812 L 11.640625 0.507812 C 11.550781 0.5 11.476562 0.429688 11.472656 0.339844 L 11.472656 0.167969 C 11.429688 0.0859375 11.386719 0 11.300781 0 L 9.566406 0 C 9.476562 0.0078125 9.402344 0.078125 9.398438 0.167969 L 9.398438 0.382812 C 9.390625 0.472656 9.316406 0.542969 9.226562 0.550781 L 8.464844 0.550781 C 8.375 0.554688 8.300781 0.628906 8.296875 0.71875 C 8.289062 0.628906 8.21875 0.554688 8.128906 0.550781 L 7.363281 0.550781 C 7.273438 0.542969 7.203125 0.472656 7.195312 0.382812 L 7.195312 0.167969 C 7.191406 0.078125 7.117188 0.0078125 7.027344 0 L 5.289062 0 C 5.199219 0.0078125 5.128906 0.078125 5.121094 0.167969 L 5.121094 0.382812 C 5.117188 0.472656 5.042969 0.542969 4.953125 0.550781 L 4.191406 0.550781 C 4.101562 0.554688 4.027344 0.628906 4.019531 0.71875 L 4.019531 1.058594 C 4.027344 1.148438 4.101562 1.222656 4.191406 1.226562 L 3.9375 1.226562 C 3.53125 1.242188 3.210938 1.582031 3.21875 1.988281 L 3.21875 24.042969 L 5.078125 24.042969 L 5.078125 20.996094 L 4.191406 20.234375 C 3.746094 19.808594 3.476562 19.234375 3.429688 18.625 Z M 8.296875 1.058594 C 8.300781 1.148438 8.375 1.222656 8.464844 1.226562 L 8.128906 1.226562 C 8.210938 1.183594 8.296875 1.144531 8.296875 1.058594 Z M 8.296875 1.058594 "/>
</g>
</svg>
